<svg width="24" height="24" viewBox="0 0 24 24" fill="none" xmlns="http://www.w3.org/2000/svg">
<path d="M18.4615 3.6922L18.4615 20.3076C18.461 20.7971 18.2664 21.2664 17.9203 21.6125C17.5742 21.9586 17.1049 22.1532 16.6154 22.1537L12.9231 22.1537C12.4336 22.1532 11.9643 21.9586 11.6182 21.6125C11.2721 21.2664 11.0774 20.7971 11.0769 20.3076L11.0769 3.6922C11.0774 3.20271 11.2721 2.73342 11.6182 2.38731C11.9643 2.04119 12.4336 1.84653 12.9231 1.84604L16.6154 1.84604C17.1049 1.84653 17.5742 2.04119 17.9203 2.38731C18.2664 2.73342 18.461 3.20271 18.4615 3.6922ZM12.9231 20.3076L16.6154 20.3076L16.6154 3.6922L12.9231 3.6922L12.9231 20.3076ZM12.9231 3.6922L12.9231 20.3076C12.9226 20.7971 12.7279 21.2663 12.3818 21.6124C12.0357 21.9586 11.5664 22.1532 11.0769 22.1537L7.38462 22.1537C6.89513 22.1532 6.42584 21.9586 6.07973 21.6124C5.73361 21.2663 5.53895 20.797 5.53846 20.3076L5.53846 3.69218C5.53895 3.2027 5.73361 2.7334 6.07973 2.38729C6.42584 2.04117 6.89513 1.84651 7.38461 1.84602L11.0769 1.84602C11.5664 1.84651 12.0357 2.04117 12.3818 2.38729C12.7279 2.7334 12.9226 3.20271 12.9231 3.6922ZM7.38462 20.3076L11.0769 20.3076L11.0769 3.6922L7.38461 3.69218L7.38462 20.3076ZM7.38461 3.69218L7.38462 20.3076C7.38413 20.797 7.18946 21.2663 6.84335 21.6124C6.49723 21.9586 6.02794 22.1532 5.53846 22.1537L1.84615 22.1537C1.35667 22.1532 0.887381 21.9586 0.541266 21.6124C0.195151 21.2663 0.000488688 20.797 -8.07075e-08 20.3076L-8.06989e-07 3.69218C0.000487919 3.2027 0.19515 2.7334 0.541265 2.38729C0.88738 2.04117 1.35667 1.84651 1.84615 1.84602L5.53846 1.84602C6.02794 1.84651 6.49723 2.04117 6.84335 2.38729C7.18946 2.7334 7.38413 3.2027 7.38461 3.69218ZM1.84615 20.3076L5.53846 20.3076L5.53846 3.69218L1.84615 3.69218L1.84615 20.3076Z" fill="#42526E"/>
<path d="M24 3.6924L24 20.3078C23.9995 20.7973 23.8048 21.2665 23.4587 21.6127C23.1126 21.9588 22.6433 22.1534 22.1538 22.1539L18.4615 22.1539C17.9721 22.1534 17.5028 21.9588 17.1567 21.6127C16.8105 21.2665 16.6159 20.7971 16.6154 20.3076L16.6154 3.6922C16.6159 3.20271 16.8105 2.73363 17.1567 2.38751C17.5028 2.0414 17.9721 1.84674 18.4615 1.84625L22.1538 1.84625C22.6433 1.84674 23.1126 2.0414 23.4587 2.38751C23.8048 2.73363 23.9995 3.20292 24 3.6924ZM18.4615 20.3076L22.1538 20.3078L22.1538 3.6924L18.4615 3.6922L18.4615 20.3076Z" fill="#42526E"/>
</svg>
