<svg width="24" height="24" viewBox="0 0 24 24" fill="none" xmlns="http://www.w3.org/2000/svg">
<mask id="mask0_33723_2757" style="mask-type:alpha" maskUnits="userSpaceOnUse" x="0" y="0" width="24" height="24">
<rect width="24" height="24" fill="#D9D9D9"/>
</mask>
<g mask="url(#mask0_33723_2757)">
<path d="M2.34117 24.0151C1.69725 24.0151 1.14601 23.7858 0.68746 23.3273C0.228909 22.8687 -0.000366211 22.3175 -0.000366211 21.6736V5.28283C-0.000366211 4.63891 0.228909 4.08767 0.68746 3.62912C1.14601 3.17057 1.69725 2.9413 2.34117 2.9413H12.7903L10.4487 5.28283H2.34117V21.6736H18.7319V13.5367L21.0734 11.1952V21.6736C21.0734 22.3175 20.8442 22.8687 20.3856 23.3273C19.9271 23.7858 19.3758 24.0151 18.7319 24.0151H2.34117ZM15.4245 3.61449L17.0928 5.25356L9.36577 12.9806V14.649H11.0048L18.7612 6.89264L20.4295 8.53171L12.6732 16.288C12.4585 16.5027 12.2098 16.6734 11.9268 16.8003C11.6439 16.9271 11.3463 16.9905 11.0341 16.9905H8.19501C7.86329 16.9905 7.58523 16.8783 7.36083 16.6539C7.13644 16.4295 7.02424 16.1515 7.02424 15.8197V12.9806C7.02424 12.6684 7.08278 12.3709 7.19985 12.0879C7.31693 11.805 7.48279 11.5562 7.69743 11.3416L15.4245 3.61449ZM20.4295 8.53171L15.4245 3.61449L18.3514 0.687568C18.8197 0.219261 19.3807 -0.0148926 20.0344 -0.0148926C20.6881 -0.0148926 21.2393 0.219261 21.6881 0.687568L23.3272 2.35591C23.776 2.80471 24.0004 3.35106 24.0004 3.99499C24.0004 4.63891 23.776 5.18527 23.3272 5.63406L20.4295 8.53171Z" fill="#42526E"/>
</g>
</svg>
