<svg width="21" height="20" viewBox="0 0 21 20" fill="none" xmlns="http://www.w3.org/2000/svg">
<path d="M9.98418 16C10.3342 16 10.63 15.8792 10.8717 15.6375C11.1133 15.3958 11.2342 15.1 11.2342 14.75C11.2342 14.4 11.1133 14.1042 10.8717 13.8625C10.63 13.6208 10.3342 13.5 9.98418 13.5C9.63418 13.5 9.33835 13.6208 9.09668 13.8625C8.85501 14.1042 8.73418 14.4 8.73418 14.75C8.73418 15.1 8.85501 15.3958 9.09668 15.6375C9.33835 15.8792 9.63418 16 9.98418 16ZM10.0342 20C8.65085 20 7.35085 19.7375 6.13418 19.2125C4.91751 18.6875 3.85918 17.975 2.95918 17.075C2.05918 16.175 1.34668 15.1167 0.82168 13.9C0.29668 12.6833 0.0341797 11.3833 0.0341797 10C0.0341797 8.61667 0.29668 7.31667 0.82168 6.1C1.34668 4.88333 2.05918 3.825 2.95918 2.925C3.85918 2.025 4.91751 1.3125 6.13418 0.7875C7.35085 0.2625 8.65085 0 10.0342 0C11.4175 0 12.7175 0.2625 13.9342 0.7875C15.1508 1.3125 16.2092 2.025 17.1092 2.925C18.0092 3.825 18.7217 4.88333 19.2467 6.1C19.7717 7.31667 20.0342 8.61667 20.0342 10C20.0342 11.3833 19.7717 12.6833 19.2467 13.9C18.7217 15.1167 18.0092 16.175 17.1092 17.075C16.2092 17.975 15.1508 18.6875 13.9342 19.2125C12.7175 19.7375 11.4175 20 10.0342 20ZM10.0342 18C12.2675 18 14.1592 17.225 15.7092 15.675C17.2592 14.125 18.0342 12.2333 18.0342 10C18.0342 7.76667 17.2592 5.875 15.7092 4.325C14.1592 2.775 12.2675 2 10.0342 2C7.80085 2 5.90918 2.775 4.35918 4.325C2.80918 5.875 2.03418 7.76667 2.03418 10C2.03418 12.2333 2.80918 14.125 4.35918 15.675C5.90918 17.225 7.80085 18 10.0342 18ZM10.1342 5.7C10.5508 5.7 10.9133 5.83333 11.2217 6.1C11.53 6.36667 11.6842 6.7 11.6842 7.1C11.6842 7.46667 11.5717 7.79167 11.3467 8.075C11.1217 8.35833 10.8675 8.625 10.5842 8.875C10.2008 9.20833 9.86335 9.575 9.57168 9.975C9.28001 10.375 9.13418 10.825 9.13418 11.325C9.13418 11.5583 9.22168 11.7542 9.39668 11.9125C9.57168 12.0708 9.77585 12.15 10.0092 12.15C10.2592 12.15 10.4717 12.0667 10.6467 11.9C10.8217 11.7333 10.9342 11.525 10.9842 11.275C11.0508 10.925 11.2008 10.6125 11.4342 10.3375C11.6675 10.0625 11.9175 9.8 12.1842 9.55C12.5675 9.18333 12.8967 8.78333 13.1717 8.35C13.4467 7.91667 13.5842 7.43333 13.5842 6.9C13.5842 6.05 13.2383 5.35417 12.5467 4.8125C11.855 4.27083 11.0508 4 10.1342 4C9.50085 4 8.89668 4.13333 8.32168 4.4C7.74668 4.66667 7.30918 5.075 7.00918 5.625C6.89251 5.825 6.85501 6.0375 6.89668 6.2625C6.93835 6.4875 7.05085 6.65833 7.23418 6.775C7.46751 6.90833 7.70918 6.95 7.95918 6.9C8.20918 6.85 8.41751 6.70833 8.58418 6.475C8.76751 6.225 8.99668 6.03333 9.27168 5.9C9.54668 5.76667 9.83418 5.7 10.1342 5.7Z" fill="white"/>
</svg>
