<svg width="17" height="7" viewBox="0 0 17 7" fill="none" xmlns="http://www.w3.org/2000/svg">
<g clip-path="url(#clip0_34155_424)">
<path d="M16.0685 6.66658H0.931507C0.684456 6.66658 0.447523 6.56773 0.272832 6.39177C0.0981406 6.21581 0 5.97716 0 5.72831C0 5.47947 0.0981406 5.24081 0.272832 5.06485C0.447523 4.88889 0.684456 4.79004 0.931507 4.79004H16.0685C16.3155 4.79004 16.5525 4.88889 16.7272 5.06485C16.9019 5.24081 17 5.47947 17 5.72831C17 5.97716 16.9019 6.21581 16.7272 6.39177C16.5525 6.56773 16.3155 6.66658 16.0685 6.66658Z" fill="#FF7A00"/>
<path d="M16.0685 2.2098H0.931507C0.684456 2.2098 0.447523 2.11094 0.272832 1.93498C0.0981406 1.75902 0 1.52037 0 1.27152C0 1.02268 0.0981406 0.784025 0.272832 0.608065C0.447523 0.432105 0.684456 0.333252 0.931507 0.333252L16.0685 0.333252C16.3155 0.333252 16.5525 0.432105 16.7272 0.608065C16.9019 0.784025 17 1.02268 17 1.27152C17 1.52037 16.9019 1.75902 16.7272 1.93498C16.5525 2.11094 16.3155 2.2098 16.0685 2.2098Z" fill="#FF7A00"/>
</g>
<defs>
<clipPath id="clip0_34155_424">
<rect width="17" height="6.33333" fill="white" transform="translate(0 0.333252)"/>
</clipPath>
</defs>
</svg>
