<svg width="49" height="33" viewBox="0 0 49 33" fill="none" xmlns="http://www.w3.org/2000/svg">
<path d="M1 1V32" stroke="#D1D1D1"/>
<mask id="mask0_33846_2290" style="mask-type:alpha" maskUnits="userSpaceOnUse" x="17" y="0" width="32" height="33">
<rect x="17" y="0.5" width="32" height="32" fill="#D9D9D9"/>
</mask>
<g mask="url(#mask0_33846_2290)">
<path d="M30.7118 20.7137C28.8946 20.7137 27.3567 20.0843 26.098 18.8256C24.8393 17.5669 24.21 16.029 24.21 14.2118C24.21 12.3946 24.8393 10.8567 26.098 9.598C27.3567 8.33931 28.8946 7.70996 30.7118 7.70996C32.529 7.70996 34.0669 8.33931 35.3256 9.598C36.5843 10.8567 37.2137 12.3946 37.2137 14.2118C37.2137 14.9454 37.097 15.6372 36.8636 16.2874C36.6302 16.9376 36.3134 17.5127 35.9133 18.0129L41.5149 23.6145C41.6983 23.7979 41.79 24.0313 41.79 24.3147C41.79 24.5981 41.6983 24.8315 41.5149 25.0149C41.3315 25.1983 41.0981 25.29 40.8147 25.29C40.5313 25.29 40.2979 25.1983 40.1145 25.0149L34.5129 19.4133C34.0127 19.8134 33.4376 20.1302 32.7874 20.3636C32.1372 20.597 31.4454 20.7137 30.7118 20.7137ZM30.7118 18.7131C31.9622 18.7131 33.025 18.2755 33.9002 17.4002C34.7755 16.525 35.2131 15.4622 35.2131 14.2118C35.2131 12.9615 34.7755 11.8987 33.9002 11.0234C33.025 10.1482 31.9622 9.71053 30.7118 9.71053C29.4615 9.71053 28.3987 10.1482 27.5234 11.0234C26.6482 11.8987 26.2105 12.9615 26.2105 14.2118C26.2105 15.4622 26.6482 16.525 27.5234 17.4002C28.3987 18.2755 29.4615 18.7131 30.7118 18.7131Z" fill="#42526E"/>
</g>
</svg>
