<svg width="46" height="56" viewBox="0 0 46 56" fill="none" xmlns="http://www.w3.org/2000/svg">
<path d="M32.9078 0H22.7341V11.7047H32.9078V0Z" fill="white"/>
<path d="M22.7342 21.2241H32.9079V37.7317C32.9544 41.7039 31.8239 45.6002 29.6602 48.9254C27.5237 52.1562 23.3994 56.0001 15.7692 56.0001C7.45808 56.0001 2.61385 52.0697 0 49.9159L6.41724 42.0001C8.96848 44.0832 11.4258 45.7968 15.8083 45.7968C19.1265 45.7968 20.4491 44.4448 21.2238 43.2657C22.2771 41.6279 22.8219 39.7126 22.789 37.7631L22.7342 21.2241Z" fill="white"/>
<path d="M17.5457 13.835H7.37207V24.0539H17.5457V13.835Z" fill="white"/>
<path d="M38.2374 51.2047C38.2374 53.3821 37.134 54.5534 35.5923 54.5534C34.0506 54.5534 33.041 53.162 33.041 51.3147C33.041 49.4675 34.0819 48.0054 35.6783 48.0054C37.2748 48.0054 38.2374 49.4439 38.2374 51.2047ZM34.2227 51.2912C34.2227 52.6039 34.7471 53.5708 35.647 53.5708C36.547 53.5708 37.0557 52.5489 37.0557 51.2126C37.0557 50.0413 36.5861 48.9408 35.647 48.9408C34.7079 48.9408 34.2227 50.002 34.2227 51.2912Z" fill="white"/>
<path d="M40.2563 48.1001V54.4516H39.1294V48.1001H40.2563Z" fill="white"/>
<path d="M41.4773 54.4516V48.1001H42.7294L44.0755 50.7177C44.422 51.4022 44.7303 52.1055 44.9989 52.8244C44.9285 52.0383 44.8972 51.1343 44.8972 50.1282V48.1001H45.9302V54.4516H44.7642L43.4025 51.7789C43.0419 51.0768 42.7206 50.3552 42.4399 49.6172C42.4399 50.4033 42.4947 51.2916 42.4947 52.3842V54.4437L41.4773 54.4516Z" fill="white"/>
</svg>
