<svg width="24" height="24" viewBox="0 0 24 24" fill="none" xmlns="http://www.w3.org/2000/svg">
<mask id="mask0_33723_2769" style="mask-type:alpha" maskUnits="userSpaceOnUse" x="0" y="0" width="24" height="24">
<rect width="24" height="24" fill="#D9D9D9"/>
</mask>
<g mask="url(#mask0_33723_2769)">
<path d="M12 19.1999C10.88 19.1999 9.80995 19.3749 8.78995 19.7249C7.76995 20.0749 6.83995 20.5999 5.99995 21.2999V21.5999H18V21.2999C17.16 20.5999 16.23 20.0749 15.21 19.7249C14.19 19.3749 13.12 19.1999 12 19.1999ZM3.59995 20.2199C4.67995 19.1599 5.93495 18.3249 7.36495 17.7149C8.79495 17.1049 10.34 16.7999 12 16.7999C13.66 16.7999 15.205 17.1049 16.635 17.7149C18.065 18.3249 19.32 19.1599 20.4 20.2199V4.79988H3.59995V20.2199ZM12 14.3999C10.84 14.3999 9.84995 13.9899 9.02995 13.1699C8.20995 12.3499 7.79995 11.3599 7.79995 10.1999C7.79995 9.03988 8.20995 8.04988 9.02995 7.22988C9.84995 6.40988 10.84 5.99988 12 5.99988C13.16 5.99988 14.15 6.40988 14.97 7.22988C15.79 8.04988 16.2 9.03988 16.2 10.1999C16.2 11.3599 15.79 12.3499 14.97 13.1699C14.15 13.9899 13.16 14.3999 12 14.3999ZM12 11.9999C12.5 11.9999 12.925 11.8249 13.275 11.4749C13.625 11.1249 13.8 10.6999 13.8 10.1999C13.8 9.69988 13.625 9.27488 13.275 8.92488C12.925 8.57488 12.5 8.39988 12 8.39988C11.5 8.39988 11.075 8.57488 10.725 8.92488C10.375 9.27488 10.2 9.69988 10.2 10.1999C10.2 10.6999 10.375 11.1249 10.725 11.4749C11.075 11.8249 11.5 11.9999 12 11.9999ZM3.59995 23.9999C2.93995 23.9999 2.37495 23.7649 1.90495 23.2949C1.43495 22.8249 1.19995 22.2599 1.19995 21.5999V4.79988C1.19995 4.13988 1.43495 3.57488 1.90495 3.10488C2.37495 2.63488 2.93995 2.39988 3.59995 2.39988H4.79995V1.19988C4.79995 0.537136 5.33721 -0.00012207 5.99995 -0.00012207C6.66269 -0.00012207 7.19995 0.537136 7.19995 1.19988V2.39988H16.8V1.19988C16.8 0.537136 17.3372 -0.00012207 18 -0.00012207C18.6627 -0.00012207 19.2 0.537136 19.2 1.19988V2.39988H20.4C21.06 2.39988 21.625 2.63488 22.095 3.10488C22.565 3.57488 22.8 4.13988 22.8 4.79988V21.5999C22.8 22.2599 22.565 22.8249 22.095 23.2949C21.625 23.7649 21.06 23.9999 20.4 23.9999H3.59995Z" fill="#42526E"/>
</g>
</svg>
