<svg width="56" height="56" viewBox="0 0 56 56" fill="none" xmlns="http://www.w3.org/2000/svg">
<rect width="46.1176" height="46.1176" rx="23.0588" transform="matrix(1 0 0 -1 4.94141 51.0586)" fill="white"/>
<path d="M22.5227 24.5992C22.4485 23.9409 22.1425 23.4309 21.6047 23.0693C21.0669 22.703 20.39 22.5199 19.574 22.5199C18.9899 22.5199 18.4845 22.6126 18.058 22.7981C17.6315 22.9789 17.3 23.2292 17.0635 23.5491C16.8317 23.8644 16.7158 24.2237 16.7158 24.627C16.7158 24.9655 16.7946 25.2576 16.9523 25.5033C17.1145 25.749 17.3255 25.9553 17.5851 26.1222C17.8494 26.2845 18.1322 26.4213 18.4335 26.5325C18.7349 26.6392 19.0247 26.7272 19.3028 26.7968L20.6937 27.1584C21.148 27.2697 21.614 27.4204 22.0915 27.6104C22.569 27.8005 23.0118 28.0509 23.4198 28.3615C23.8278 28.6721 24.1569 29.0569 24.4073 29.5159C24.6623 29.9749 24.7898 30.5243 24.7898 31.1641C24.7898 31.9708 24.5811 32.6871 24.1639 33.313C23.7513 33.9389 23.1509 34.4326 22.3627 34.7942C21.5792 35.1559 20.6311 35.3367 19.5184 35.3367C18.4521 35.3367 17.5295 35.1675 16.7506 34.829C15.9717 34.4906 15.362 34.0107 14.9216 33.3895C14.4812 32.7636 14.2378 32.0218 14.1914 31.1641H16.3472C16.389 31.6787 16.5559 32.1076 16.848 32.4506C17.1447 32.7891 17.5225 33.0418 17.9815 33.2087C18.4451 33.3709 18.9528 33.4521 19.5045 33.4521C20.1118 33.4521 20.652 33.357 21.1249 33.1669C21.6024 32.9722 21.9779 32.7033 22.2514 32.3602C22.525 32.0125 22.6618 31.6069 22.6618 31.1432C22.6618 30.7213 22.5412 30.3759 22.3001 30.107C22.0637 29.8381 21.7415 29.6156 21.3335 29.4394C20.9301 29.2632 20.4735 29.1079 19.9635 28.9735L18.2805 28.5145C17.14 28.2039 16.236 27.7472 15.5684 27.1445C14.9054 26.5418 14.5739 25.7444 14.5739 24.7522C14.5739 23.9316 14.7964 23.2153 15.2415 22.6033C15.6866 21.9914 16.2893 21.5161 17.0496 21.1777C17.81 20.8346 18.6677 20.6631 19.6227 20.6631C20.5871 20.6631 21.4378 20.8323 22.175 21.1708C22.9167 21.5092 23.5009 21.9751 23.9274 22.5686C24.354 23.1574 24.5765 23.8343 24.5951 24.5992H22.5227Z" fill="#005DFF"/>
<path d="M27.3576 20.8578H29.9655L34.4997 31.9291H34.6666L39.2008 20.8578H41.8087V35.1002H39.7641V24.7939H39.632L35.4316 35.0794H33.7348L29.5344 24.787H29.4022V35.1002H27.3576V20.8578Z" fill="#005DFF"/>
<circle cx="28" cy="28" r="26.5" stroke="white" stroke-width="3"/>
</svg>
