<svg width="24" height="25" viewBox="0 0 24 25" fill="none" xmlns="http://www.w3.org/2000/svg">
<mask id="mask0_34988_2926" style="mask-type:alpha" maskUnits="userSpaceOnUse" x="0" y="0" width="24" height="25">
<rect y="0.98291" width="24" height="24" fill="#D9D9D9"/>
</mask>
<g mask="url(#mask0_34988_2926)">
<path d="M19.95 21.9829C17.8667 21.9829 15.8083 21.5287 13.775 20.6204C11.7417 19.7121 9.89167 18.4246 8.225 16.7579C6.55833 15.0912 5.27083 13.2412 4.3625 11.2079C3.45417 9.17458 3 7.11624 3 5.03291C3 4.73291 3.1 4.48291 3.3 4.28291C3.5 4.08291 3.75 3.98291 4.05 3.98291H8.1C8.33333 3.98291 8.54167 4.06208 8.725 4.22041C8.90833 4.37874 9.01667 4.56624 9.05 4.78291L9.7 8.28291C9.73333 8.54958 9.725 8.77458 9.675 8.95791C9.625 9.14124 9.53333 9.29958 9.4 9.43291L6.975 11.8829C7.30833 12.4996 7.70417 13.0954 8.1625 13.6704C8.62083 14.2454 9.125 14.7996 9.675 15.3329C10.1917 15.8496 10.7333 16.3287 11.3 16.7704C11.8667 17.2121 12.4667 17.6162 13.1 17.9829L15.45 15.6329C15.6 15.4829 15.7958 15.3704 16.0375 15.2954C16.2792 15.2204 16.5167 15.1996 16.75 15.2329L20.2 15.9329C20.4333 15.9996 20.625 16.1204 20.775 16.2954C20.925 16.4704 21 16.6662 21 16.8829V20.9329C21 21.2329 20.9 21.4829 20.7 21.6829C20.5 21.8829 20.25 21.9829 19.95 21.9829ZM6.025 9.98291L7.675 8.33291L7.25 5.98291H5.025C5.10833 6.66624 5.225 7.34124 5.375 8.00791C5.525 8.67458 5.74167 9.33291 6.025 9.98291ZM14.975 18.9329C15.625 19.2162 16.2875 19.4412 16.9625 19.6079C17.6375 19.7746 18.3167 19.8829 19 19.9329V17.7329L16.65 17.2579L14.975 18.9329Z" fill="#A8A8A8"/>
</g>
</svg>
