<svg width="25" height="25" viewBox="0 0 25 25" fill="none" xmlns="http://www.w3.org/2000/svg">
<mask id="mask0_34988_1650" style="mask-type:alpha" maskUnits="userSpaceOnUse" x="0" y="0" width="25" height="25">
<rect x="0.5" y="0.98291" width="24" height="24" fill="#D9D9D9"/>
</mask>
<g mask="url(#mask0_34988_1650)">
<path d="M10.05 16.1329L18.525 7.65791C18.725 7.45791 18.9625 7.35791 19.2375 7.35791C19.5125 7.35791 19.75 7.45791 19.95 7.65791C20.15 7.85791 20.25 8.09541 20.25 8.37041C20.25 8.64541 20.15 8.88291 19.95 9.08291L10.75 18.2829C10.55 18.4829 10.3167 18.5829 10.05 18.5829C9.78336 18.5829 9.55002 18.4829 9.35002 18.2829L5.05002 13.9829C4.85002 13.7829 4.75419 13.5454 4.76252 13.2704C4.77086 12.9954 4.87502 12.7579 5.07502 12.5579C5.27502 12.3579 5.51252 12.2579 5.78752 12.2579C6.06252 12.2579 6.30002 12.3579 6.50002 12.5579L10.05 16.1329Z" fill="white"/>
</g>
</svg>
