<svg width="134" height="135" viewBox="0 0 134 135" fill="none" xmlns="http://www.w3.org/2000/svg">
<g filter="url(#filter0_d_742_5650)">
<rect x="7" y="7.48291" width="120" height="120" rx="60" fill="white"/>
<rect x="5.5" y="5.98291" width="123" height="123" rx="61.5" stroke="white" stroke-width="3"/>
<circle cx="67" cy="67.4829" r="60" fill="#D1D1D1"/>
<mask id="mask0_742_5650" style="mask-type:alpha" maskUnits="userSpaceOnUse" x="35" y="35" width="64" height="65">
<rect x="35" y="35.4829" width="64" height="64" fill="#D9D9D9"/>
</mask>
<g mask="url(#mask0_742_5650)">
<path d="M67 67.483C64.0667 67.483 61.5555 66.4385 59.4667 64.3497C57.3778 62.2608 56.3333 59.7497 56.3333 56.8163C56.3333 53.883 57.3778 51.3719 59.4667 49.283C61.5555 47.1941 64.0667 46.1497 67 46.1497C69.9333 46.1497 72.4444 47.1941 74.5333 49.283C76.6222 51.3719 77.6667 53.883 77.6667 56.8163C77.6667 59.7497 76.6222 62.2608 74.5333 64.3497C72.4444 66.4385 69.9333 67.483 67 67.483ZM83 88.8163H51C49.5333 88.8163 48.2778 88.2941 47.2333 87.2497C46.1889 86.2052 45.6667 84.9497 45.6667 83.483V81.3497C45.6667 79.8385 46.0555 78.4497 46.8333 77.183C47.6111 75.9163 48.6444 74.9497 49.9333 74.283C52.6889 72.9052 55.4889 71.8719 58.3333 71.183C61.1778 70.4941 64.0667 70.1497 67 70.1497C69.9333 70.1497 72.8222 70.4941 75.6667 71.183C78.5111 71.8719 81.3111 72.9052 84.0667 74.283C85.3555 74.9497 86.3889 75.9163 87.1667 77.183C87.9444 78.4497 88.3333 79.8385 88.3333 81.3497V83.483C88.3333 84.9497 87.8111 86.2052 86.7667 87.2497C85.7222 88.2941 84.4667 88.8163 83 88.8163ZM51 83.483H83V81.3497C83 80.8608 82.8778 80.4163 82.6333 80.0163C82.3889 79.6163 82.0667 79.3052 81.6667 79.083C79.2667 77.883 76.8444 76.983 74.4 76.383C71.9555 75.783 69.4889 75.483 67 75.483C64.5111 75.483 62.0444 75.783 59.6 76.383C57.1555 76.983 54.7333 77.883 52.3333 79.083C51.9333 79.3052 51.6111 79.6163 51.3667 80.0163C51.1222 80.4163 51 80.8608 51 81.3497V83.483ZM67 62.1497C68.4667 62.1497 69.7222 61.6274 70.7667 60.583C71.8111 59.5385 72.3333 58.283 72.3333 56.8163C72.3333 55.3497 71.8111 54.0941 70.7667 53.0497C69.7222 52.0052 68.4667 51.483 67 51.483C65.5333 51.483 64.2778 52.0052 63.2333 53.0497C62.1889 54.0941 61.6667 55.3497 61.6667 56.8163C61.6667 58.283 62.1889 59.5385 63.2333 60.583C64.2778 61.6274 65.5333 62.1497 67 62.1497Z" fill="white"/>
</g>
</g>
<defs>
<filter id="filter0_d_742_5650" x="0" y="0.48291" width="134" height="134" filterUnits="userSpaceOnUse" color-interpolation-filters="sRGB">
<feFlood flood-opacity="0" result="BackgroundImageFix"/>
<feColorMatrix in="SourceAlpha" type="matrix" values="0 0 0 0 0 0 0 0 0 0 0 0 0 0 0 0 0 0 127 0" result="hardAlpha"/>
<feOffset/>
<feGaussianBlur stdDeviation="2"/>
<feColorMatrix type="matrix" values="0 0 0 0 0 0 0 0 0 0 0 0 0 0 0 0 0 0 0.1 0"/>
<feBlend mode="normal" in2="BackgroundImageFix" result="effect1_dropShadow_742_5650"/>
<feBlend mode="normal" in="SourceGraphic" in2="effect1_dropShadow_742_5650" result="shape"/>
</filter>
</defs>
</svg>
