<svg width="56" height="67" viewBox="0 0 56 67" fill="none" xmlns="http://www.w3.org/2000/svg">
<path d="M39.9329 0H27.7229V13.8957H39.9329V0Z" fill="white"/>
<path d="M27.7229 25.197H39.9329V44.7947C39.9887 49.5105 38.632 54.1362 36.0351 58.0839C33.471 61.9194 28.5213 66.4829 19.3638 66.4829C9.38918 66.4829 3.57535 61.8167 0.438324 59.2597L8.14 49.8621C11.2019 52.3352 14.1511 54.3696 19.4108 54.3696C23.3931 54.3696 24.9804 52.7645 25.9102 51.3646C27.1743 49.4203 27.8281 47.1465 27.7887 44.8321L27.7229 25.197Z" fill="white"/>
<path d="M21.4959 16.4248H9.28589V28.5567H21.4959V16.4248Z" fill="white"/>
<path d="M46.329 60.7904C46.329 63.3754 45.0047 64.7659 43.1544 64.7659C41.3042 64.7659 40.0926 63.1141 40.0926 60.9211C40.0926 58.728 41.3417 56.9922 43.2578 56.9922C45.1738 56.9922 46.329 58.7 46.329 60.7904ZM41.5108 60.8931C41.5108 62.4516 42.1401 63.5994 43.2202 63.5994C44.3003 63.5994 44.9108 62.3862 44.9108 60.7997C44.9108 59.4092 44.3473 58.1027 43.2202 58.1027C42.0931 58.1027 41.5108 59.3626 41.5108 60.8931Z" fill="white"/>
<path d="M48.7522 57.104V64.6445H47.3997V57.104H48.7522Z" fill="white"/>
<path d="M50.2175 64.6445V57.104H51.7202L53.3357 60.2116C53.7516 61.0242 54.1216 61.8592 54.444 62.7127C54.3595 61.7795 54.3219 60.7063 54.3219 59.5117V57.104H55.5617V64.6445H54.1622L52.528 61.4715C52.0953 60.638 51.7096 59.7812 51.3727 58.9051C51.3727 59.8384 51.4385 60.8929 51.4385 62.1901V64.6351L50.2175 64.6445Z" fill="white"/>
</svg>
