<svg width="24" height="25" viewBox="0 0 24 25" fill="none" xmlns="http://www.w3.org/2000/svg">
<mask id="mask0_34988_2919" style="mask-type:alpha" maskUnits="userSpaceOnUse" x="0" y="0" width="24" height="25">
<rect y="0.48291" width="24" height="24" fill="#D9D9D9"/>
</mask>
<g mask="url(#mask0_34988_2919)">
<path d="M4 20.4829C3.45 20.4829 2.97917 20.2871 2.5875 19.8954C2.19583 19.5037 2 19.0329 2 18.4829V6.48291C2 5.93291 2.19583 5.46208 2.5875 5.07041C2.97917 4.67874 3.45 4.48291 4 4.48291H20C20.55 4.48291 21.0208 4.67874 21.4125 5.07041C21.8042 5.46208 22 5.93291 22 6.48291V18.4829C22 19.0329 21.8042 19.5037 21.4125 19.8954C21.0208 20.2871 20.55 20.4829 20 20.4829H4ZM20 8.48291L12.525 13.1579C12.4417 13.2079 12.3542 13.2454 12.2625 13.2704C12.1708 13.2954 12.0833 13.3079 12 13.3079C11.9167 13.3079 11.8292 13.2954 11.7375 13.2704C11.6458 13.2454 11.5583 13.2079 11.475 13.1579L4 8.48291V18.4829H20V8.48291ZM12 11.4829L20 6.48291H4L12 11.4829ZM4 8.73291V7.25791V7.28291V7.27041V8.73291Z" fill="#A8A8A8"/>
</g>
</svg>
