<svg width="33" height="32" viewBox="0 0 33 32" fill="none" xmlns="http://www.w3.org/2000/svg">
<mask id="mask0_34877_2572" style="mask-type:alpha" maskUnits="userSpaceOnUse" x="0" y="0" width="33" height="32">
<rect x="0.5" width="32" height="32" fill="#D9D9D9"/>
</mask>
<g mask="url(#mask0_34877_2572)">
<path d="M25.8294 18.6667C25.5134 18.6667 25.2499 18.5602 25.0388 18.3473C24.8277 18.1343 24.7222 17.8704 24.7222 17.5556V14.4445H21.611C21.2962 14.4445 21.0323 14.3376 20.8194 14.1239C20.6064 13.9102 20.4999 13.6454 20.4999 13.3295C20.4999 13.0136 20.6064 12.7501 20.8194 12.5389C21.0323 12.3278 21.2962 12.2223 21.611 12.2223H24.7222V9.11115C24.7222 8.79635 24.829 8.53246 25.0427 8.31948C25.2564 8.10653 25.5212 8.00005 25.8372 8.00005C26.1531 8.00005 26.4166 8.10653 26.6277 8.31948C26.8388 8.53246 26.9444 8.79635 26.9444 9.11115V12.2223H30.0555C30.3703 12.2223 30.6342 12.3291 30.8472 12.5428C31.0601 12.7566 31.1666 13.0214 31.1666 13.3373C31.1666 13.6532 31.0601 13.9167 30.8472 14.1278C30.6342 14.3389 30.3703 14.4445 30.0555 14.4445H26.9444V17.5556C26.9444 17.8704 26.8375 18.1343 26.6238 18.3473C26.4101 18.5602 26.1453 18.6667 25.8294 18.6667ZM12.4999 15.9778C11.0333 15.9778 9.81473 15.4926 8.84435 14.5223C7.874 13.5519 7.38882 12.3334 7.38882 10.8667C7.38882 9.40005 7.874 8.18154 8.84435 7.21118C9.81473 6.2408 11.0333 5.75562 12.4999 5.75562C13.9666 5.75562 15.1851 6.2408 16.1555 7.21118C17.1258 8.18154 17.611 9.40005 17.611 10.8667C17.611 12.3334 17.1258 13.5519 16.1555 14.5223C15.1851 15.4926 13.9666 15.9778 12.4999 15.9778ZM2.94435 26.6667C2.62955 26.6667 2.36566 26.5602 2.15269 26.3473C1.93973 26.1343 1.83325 25.8704 1.83325 25.5556V23.3334C1.83325 22.563 2.0314 21.8612 2.42769 21.2279C2.824 20.5945 3.3666 20.1186 4.05549 19.8C5.62586 19.0815 7.08022 18.5649 8.41855 18.25C9.75691 17.9352 11.1162 17.7779 12.4963 17.7779C13.8765 17.7779 15.237 17.9352 16.5777 18.25C17.9184 18.5649 19.3666 19.0815 20.9222 19.8C21.611 20.1334 22.1573 20.613 22.561 21.2389C22.9647 21.8649 23.1666 22.563 23.1666 23.3334V25.5556C23.1666 25.8704 23.0601 26.1343 22.8472 26.3473C22.6342 26.5602 22.3703 26.6667 22.0555 26.6667H2.94435ZM4.05545 24.4445H20.9444V23.3334C20.9444 23.0149 20.8648 22.7149 20.7055 22.4334C20.5462 22.1519 20.3073 21.9408 19.9888 21.8C18.5518 21.0963 17.2629 20.6204 16.1222 20.3723C14.9814 20.1241 13.774 20 12.4999 20C11.2259 20 10.0184 20.1278 8.87769 20.3834C7.73695 20.6389 6.44066 21.1112 4.98882 21.8C4.69991 21.9408 4.47212 22.1519 4.30545 22.4334C4.13879 22.7149 4.05545 23.0149 4.05545 23.3334V24.4445ZM12.4999 13.7556C13.3221 13.7556 14.0092 13.4797 14.561 12.9278C15.1129 12.376 15.3888 11.6889 15.3888 10.8667C15.3888 10.0445 15.1129 9.35746 14.561 8.80562C14.0092 8.25375 13.3221 7.97782 12.4999 7.97782C11.6777 7.97782 10.9907 8.25375 10.4388 8.80562C9.88695 9.35746 9.61102 10.0445 9.61102 10.8667C9.61102 11.6889 9.88695 12.376 10.4388 12.9278C10.9907 13.4797 11.6777 13.7556 12.4999 13.7556Z" fill="white"/>
</g>
</svg>
