<svg width="24" height="25" viewBox="0 0 24 25" fill="none" xmlns="http://www.w3.org/2000/svg">
<mask id="mask0_34988_2912" style="mask-type:alpha" maskUnits="userSpaceOnUse" x="0" y="0" width="24" height="25">
<rect y="0.48291" width="24" height="24" fill="#D9D9D9"/>
</mask>
<g mask="url(#mask0_34988_2912)">
<path d="M12 12.4829C10.9 12.4829 9.95833 12.0912 9.175 11.3079C8.39167 10.5246 8 9.58291 8 8.48291C8 7.38291 8.39167 6.44124 9.175 5.65791C9.95833 4.87458 10.9 4.48291 12 4.48291C13.1 4.48291 14.0417 4.87458 14.825 5.65791C15.6083 6.44124 16 7.38291 16 8.48291C16 9.58291 15.6083 10.5246 14.825 11.3079C14.0417 12.0912 13.1 12.4829 12 12.4829ZM18 20.4829H6C5.45 20.4829 4.97917 20.2871 4.5875 19.8954C4.19583 19.5037 4 19.0329 4 18.4829V17.6829C4 17.1162 4.14583 16.5954 4.4375 16.1204C4.72917 15.6454 5.11667 15.2829 5.6 15.0329C6.63333 14.5162 7.68333 14.1287 8.75 13.8704C9.81667 13.6121 10.9 13.4829 12 13.4829C13.1 13.4829 14.1833 13.6121 15.25 13.8704C16.3167 14.1287 17.3667 14.5162 18.4 15.0329C18.8833 15.2829 19.2708 15.6454 19.5625 16.1204C19.8542 16.5954 20 17.1162 20 17.6829V18.4829C20 19.0329 19.8042 19.5037 19.4125 19.8954C19.0208 20.2871 18.55 20.4829 18 20.4829ZM6 18.4829H18V17.6829C18 17.4996 17.9542 17.3329 17.8625 17.1829C17.7708 17.0329 17.65 16.9162 17.5 16.8329C16.6 16.3829 15.6917 16.0454 14.775 15.8204C13.8583 15.5954 12.9333 15.4829 12 15.4829C11.0667 15.4829 10.1417 15.5954 9.225 15.8204C8.30833 16.0454 7.4 16.3829 6.5 16.8329C6.35 16.9162 6.22917 17.0329 6.1375 17.1829C6.04583 17.3329 6 17.4996 6 17.6829V18.4829ZM12 10.4829C12.55 10.4829 13.0208 10.2871 13.4125 9.89541C13.8042 9.50374 14 9.03291 14 8.48291C14 7.93291 13.8042 7.46208 13.4125 7.07041C13.0208 6.67874 12.55 6.48291 12 6.48291C11.45 6.48291 10.9792 6.67874 10.5875 7.07041C10.1958 7.46208 10 7.93291 10 8.48291C10 9.03291 10.1958 9.50374 10.5875 9.89541C10.9792 10.2871 11.45 10.4829 12 10.4829Z" fill="#A8A8A8"/>
</g>
</svg>
